<?xml version="1.0" standalone="no"?>
<!DOCTYPE svg PUBLIC "-//W3C//DTD SVG 20010904//EN"
 "http://www.w3.org/TR/2001/REC-SVG-20010904/DTD/svg10.dtd">
<svg version="1.0" xmlns="http://www.w3.org/2000/svg"
 width="740.000000pt" height="740.000000pt" viewBox="0 0 740.000000 740.000000"
 preserveAspectRatio="xMidYMid meet">

<g transform="translate(0.000000,740.000000) scale(0.100000,-0.100000)"
fill="#000000" stroke="none">
<path d="M4230 4855 l-4 -100 -6 80 c-4 47 -7 63 -8 38 -1 -23 -7 -45 -13 -48
-6 -4 -8 -13 -5 -21 3 -8 1 -14 -4 -14 -5 0 -11 35 -13 78 -1 42 -4 7 -5 -79
l-2 -156 53 -7 c239 -31 551 -97 621 -133 110 -56 172 -155 256 -413 96 -291
135 -523 135 -800 0 -165 -3 -203 -19 -249 -51 -147 -228 -215 -360 -137 -60
35 -88 71 -126 163 -111 269 -222 404 -405 493 -148 73 -169 75 -625 75 -364
0 -412 -2 -474 -19 -164 -44 -285 -122 -392 -251 -54 -65 -83 -117 -149 -266
-62 -138 -88 -171 -160 -205 -93 -44 -202 -24 -278 50 -65 63 -78 110 -84 301
-3 88 -9 164 -13 168 -4 5 -15 1 -24 -8 -12 -12 -16 -13 -16 -3 0 10 -3 9 -10
-2 -5 -8 -12 -11 -16 -7 -4 3 -1 15 7 24 13 16 12 17 -3 5 -9 -8 -19 -23 -21
-35 -2 -12 -6 1 -7 28 -2 29 -6 1 -9 -65 -7 -143 2 -285 24 -349 34 -103 137
-204 238 -233 64 -18 184 -14 239 8 118 48 173 111 242 279 59 143 99 207 176
285 67 67 156 121 260 156 50 17 91 19 470 19 461 0 450 1 590 -71 138 -72
230 -184 315 -385 56 -135 92 -189 148 -230 193 -141 459 -76 558 134 112 241
13 967 -191 1405 -61 130 -178 236 -303 273 -50 15 -257 57 -391 79 -66 11
-135 22 -153 25 l-32 6 -4 107 -3 107 -4 -100z m-2153 -1527 c-3 -8 -6 -5 -6
6 -1 11 2 17 5 13 3 -3 4 -12 1 -19z"/>
<path d="M4077 4775 c-11 -7 -24 -11 -31 -9 -14 5 -47 -60 -49 -98 -2 -22 -4
-24 -22 -13 -12 7 -30 9 -45 5 -22 -7 -21 -8 13 -9 40 -1 40 1 37 -81 -1 -34
-9 -67 -21 -86 -46 -75 1 -164 86 -164 79 0 127 80 93 155 -6 14 -15 25 -20
25 -4 0 -8 65 -8 145 0 80 -3 145 -7 145 -5 0 -16 -7 -26 -15z"/>
<path d="M3898 4763 c6 -2 18 -2 25 0 6 3 1 5 -13 5 -14 0 -19 -2 -12 -5z"/>
<path d="M3278 4323 c7 -3 16 -2 19 1 4 3 -2 6 -13 5 -11 0 -14 -3 -6 -6z"/>
<path d="M4523 4282 c-29 -21 -42 -68 -32 -107 27 -99 172 -82 186 22 5 37 2
45 -25 73 -36 35 -92 41 -129 12z"/>
<path d="M3043 4103 c-13 -2 -23 -9 -23 -15 0 -5 7 -8 15 -5 8 4 17 2 21 -4 7
-12 34 7 34 24 0 6 -7 2 -16 -9 -13 -16 -15 -16 -10 -1 3 9 4 16 3 16 -1 -1
-12 -4 -24 -6z"/>
<path d="M4321 4077 c-74 -43 -63 -154 17 -177 69 -21 124 22 124 96 0 67 -82
114 -141 81z"/>
<path d="M4748 4075 c-105 -59 -25 -218 85 -171 42 17 57 41 57 90 0 71 -80
116 -142 81z"/>
<path d="M2926 4032 c-3 -5 1 -18 9 -28 14 -18 14 -18 15 3 0 23 -15 39 -24
25z"/>
<path d="M2993 4029 c-6 -6 -9 -18 -6 -25 8 -21 -17 -47 -32 -34 -10 8 -15 8
-21 -1 -5 -8 -3 -9 5 -5 8 5 14 0 18 -13 5 -18 13 -21 67 -21 68 0 87 11 85
50 l-2 25 -5 -25 -5 -25 -6 25 c-4 14 -17 29 -29 35 -12 5 -22 13 -22 17 0 12
-35 9 -47 -3z"/>
<path d="M2860 4011 c0 -6 4 -13 10 -16 6 -3 7 1 4 9 -7 18 -14 21 -14 7z"/>
<path d="M2913 3999 c3 -9 1 -21 -4 -26 -6 -6 -3 -15 8 -23 15 -12 16 -12 6 0
-9 10 -10 17 -1 27 8 10 8 17 -2 26 -10 10 -12 9 -7 -4z"/>
<path d="M2813 3955 c0 -8 4 -12 9 -9 5 3 6 10 3 15 -9 13 -12 11 -12 -6z"/>
<path d="M2776 3923 c-6 -14 -5 -15 5 -6 7 7 10 15 7 18 -3 3 -9 -2 -12 -12z"/>
<path d="M2808 3918 c9 -11 10 -18 2 -23 -5 -3 -10 0 -10 7 0 10 -3 9 -9 -2
-6 -8 -7 -18 -5 -22 3 -4 -6 -8 -20 -8 -20 0 -26 -5 -26 -22 -1 -65 -13 -91
-23 -50 -3 9 -5 3 -6 -15 -2 -49 20 -63 98 -63 39 0 72 5 79 12 18 18 16 152
-3 168 -8 7 -15 9 -15 4 0 -5 -5 -2 -11 6 -8 12 -9 12 -7 -5 2 -12 -4 -21 -16
-23 -14 -3 -17 0 -13 11 3 9 -2 21 -11 29 -15 12 -16 11 -4 -4z m76 -39 c-3
-5 -10 -7 -15 -3 -5 3 -7 10 -3 15 3 5 10 7 15 3 5 -3 7 -10 3 -15z m-34 -19
c0 -5 -5 -10 -11 -10 -5 0 -7 5 -4 10 3 6 8 10 11 10 2 0 4 -4 4 -10z m-115
-100 c3 -5 1 -10 -4 -10 -6 0 -11 5 -11 10 0 6 2 10 4 10 3 0 8 -4 11 -10z"/>
<path d="M2712 3845 c0 -16 2 -22 5 -12 2 9 2 23 0 30 -3 6 -5 -1 -5 -18z"/>
<path d="M4515 3845 c-19 -18 -25 -35 -25 -67 1 -46 12 -68 47 -86 62 -33 130
4 140 75 5 37 2 45 -25 73 -40 40 -101 42 -137 5z"/>
<path d="M2163 3475 c0 -22 2 -30 4 -17 2 12 2 30 0 40 -3 9 -5 -1 -4 -23z"/>
<path d="M1620 2531 c-136 -42 -211 -176 -180 -324 25 -124 112 -187 256 -187
44 0 104 7 132 15 l52 16 0 129 0 130 -105 0 -105 0 0 -40 0 -40 50 0 51 0 -3
-57 -3 -58 -61 -3 c-54 -3 -65 0 -93 24 -45 37 -61 74 -61 140 0 110 65 174
176 174 33 -1 76 -7 97 -14 l37 -14 0 49 c0 47 -1 48 -37 58 -43 12 -166 13
-203 2z"/>
<path d="M3874 2521 c-60 -27 -84 -63 -84 -125 0 -79 21 -104 137 -160 74 -36
99 -63 88 -95 -13 -43 -115 -53 -185 -17 -18 9 -35 16 -37 16 -2 0 -3 -23 -1
-52 4 -62 10 -65 136 -67 96 -1 136 12 175 58 22 27 27 42 27 86 0 69 -28 104
-124 152 -114 56 -130 82 -80 122 31 25 81 27 139 6 22 -8 41 -15 43 -15 1 0
2 22 2 49 0 46 -1 49 -31 55 -63 12 -163 6 -205 -13z"/>
<path d="M4751 2526 c-195 -70 -216 -388 -31 -482 52 -27 146 -32 214 -12 169
51 213 339 69 457 -21 17 -54 36 -73 41 -47 13 -137 11 -179 -4z m170 -102
c37 -33 52 -76 52 -144 1 -102 -38 -159 -116 -167 -88 -10 -147 54 -147 161 0
82 31 143 85 167 31 14 103 4 126 -17z"/>
<path d="M2115 2518 c-49 -131 -175 -482 -175 -487 0 -3 25 -6 57 -6 l56 0 19
58 20 57 93 0 93 0 19 -57 19 -57 57 -1 c31 0 57 2 57 5 0 3 -39 116 -87 253
l-88 247 -68 0 c-45 0 -69 -4 -72 -12z m131 -270 l6 -28 -66 0 c-46 0 -66 4
-66 12 0 7 11 47 24 88 13 41 27 88 31 105 6 27 10 21 36 -60 15 -50 31 -102
35 -117z"/>
<path d="M2510 2277 l0 -253 48 1 47 0 -1 207 c-1 192 5 246 19 166 3 -18 33
-110 67 -203 l61 -171 44 1 c40 0 46 3 56 30 50 140 119 351 119 366 0 11 3
19 8 19 4 0 5 -93 4 -207 l-4 -208 56 0 56 0 0 253 0 253 -82 -3 -81 -3 -61
-182 c-56 -167 -76 -211 -76 -166 0 10 -26 93 -57 185 l-58 168 -82 0 -83 0 0
-253z"/>
<path d="M3220 2276 l0 -253 150 -2 150 -2 0 45 0 45 -97 3 -98 3 0 60 0 60
83 3 82 3 0 39 0 39 -82 3 -83 3 0 60 0 60 93 3 92 3 0 39 0 40 -145 0 -145 0
0 -254z"/>
<path d="M4180 2490 l0 -40 70 0 70 0 0 -209 0 -209 55 -4 55 -3 2 210 3 210
73 3 72 3 0 39 0 40 -200 0 -200 0 0 -40z"/>
<path d="M5182 2278 l3 -253 53 -3 52 -3 0 100 0 101 30 0 c38 0 53 -16 113
-115 l49 -80 63 0 62 0 -33 52 c-18 29 -45 70 -58 92 -14 21 -37 48 -52 60
-15 12 -25 23 -23 24 2 2 20 13 40 25 66 40 88 126 49 190 -31 51 -70 62 -220
62 l-130 0 2 -252z m230 155 c23 -21 23 -74 -1 -104 -14 -18 -29 -23 -67 -23
l-49 -1 -3 73 -3 72 52 0 c35 0 59 -6 71 -17z"/>
<path d="M5670 2278 l0 -253 150 0 150 0 0 42 0 42 -97 3 -98 3 0 60 0 60 83
3 82 3 0 39 0 39 -82 3 -83 3 0 60 0 60 93 3 92 3 0 39 0 40 -145 0 -145 0 0
-252z"/>
</g>
</svg>
